<?xml version="1.0" encoding="UTF-8" standalone="no"?>
<!DOCTYPE svg PUBLIC "-//W3C//DTD SVG 1.1//EN"
 "http://www.w3.org/Graphics/SVG/1.1/DTD/svg11.dtd">
<!-- Generated by graphviz version 2.43.0 (0)
 -->
<!-- Title: %3 Pages: 1 -->
<svg width="817pt" height="423pt"
 viewBox="0.00 0.00 816.50 423.00" xmlns="http://www.w3.org/2000/svg" xmlns:xlink="http://www.w3.org/1999/xlink">
<g id="graph0" class="graph" transform="scale(1 1) rotate(0) translate(4 419)">
<title>%3</title>
<polygon fill="white" stroke="transparent" points="-4,4 -4,-419 812.5,-419 812.5,4 -4,4"/>
<!-- kali&#45;desktop&#45;xfce -->
<g id="node1" class="node">
<title>kali&#45;desktop&#45;xfce</title>
<polygon fill="none" stroke="black" stroke-width="2" points="301,-342 164,-342 164,-306 301,-306 301,-342"/>
<text text-anchor="middle" x="232.5" y="-320.3" font-family="Times,serif" font-size="14.00">kali&#45;desktop&#45;xfce</text>
</g>
<!-- kali&#45;desktop&#45;core -->
<g id="node2" class="node">
<title>kali&#45;desktop&#45;core</title>
<polygon fill="none" stroke="black" points="301.5,-269 163.5,-269 163.5,-233 301.5,-233 301.5,-269"/>
<text text-anchor="middle" x="232.5" y="-247.3" font-family="Times,serif" font-size="14.00">kali&#45;desktop&#45;core</text>
</g>
<!-- kali&#45;desktop&#45;xfce&#45;&gt;kali&#45;desktop&#45;core -->
<g id="edge1" class="edge">
<title>kali&#45;desktop&#45;xfce&#45;&gt;kali&#45;desktop&#45;core</title>
<path fill="none" stroke="blue" d="M232.5,-305.81C232.5,-297.79 232.5,-288.05 232.5,-279.07"/>
<polygon fill="blue" stroke="blue" points="236,-279.03 232.5,-269.03 229,-279.03 236,-279.03"/>
</g>
<!-- kali&#45;defaults&#45;desktop -->
<g id="node3" class="node">
<title>kali&#45;defaults&#45;desktop</title>
<polygon fill="none" stroke="black" points="315,-196 150,-196 150,-160 315,-160 315,-196"/>
<text text-anchor="middle" x="232.5" y="-174.3" font-family="Times,serif" font-size="14.00">kali&#45;defaults&#45;desktop</text>
</g>
<!-- kali&#45;desktop&#45;core&#45;&gt;kali&#45;defaults&#45;desktop -->
<g id="edge2" class="edge">
<title>kali&#45;desktop&#45;core&#45;&gt;kali&#45;defaults&#45;desktop</title>
<path fill="none" stroke="blue" d="M232.5,-232.81C232.5,-224.79 232.5,-215.05 232.5,-206.07"/>
<polygon fill="blue" stroke="blue" points="236,-206.03 232.5,-196.03 229,-206.03 236,-206.03"/>
</g>
<!-- kali&#45;menu -->
<g id="node5" class="node">
<title>kali&#45;menu</title>
<polygon fill="none" stroke="black" points="419.5,-196 333.5,-196 333.5,-160 419.5,-160 419.5,-196"/>
<text text-anchor="middle" x="376.5" y="-174.3" font-family="Times,serif" font-size="14.00">kali&#45;menu</text>
</g>
<!-- kali&#45;desktop&#45;core&#45;&gt;kali&#45;menu -->
<g id="edge4" class="edge">
<title>kali&#45;desktop&#45;core&#45;&gt;kali&#45;menu</title>
<path fill="none" stroke="blue" d="M266.99,-232.99C286.71,-223.27 311.63,-210.99 332.71,-200.59"/>
<polygon fill="blue" stroke="blue" points="334.37,-203.68 341.79,-196.11 331.27,-197.4 334.37,-203.68"/>
</g>
<!-- kali&#45;themes -->
<g id="node6" class="node">
<title>kali&#45;themes</title>
<polygon fill="none" stroke="black" points="132,-196 33,-196 33,-160 132,-160 132,-196"/>
<text text-anchor="middle" x="82.5" y="-174.3" font-family="Times,serif" font-size="14.00">kali&#45;themes</text>
</g>
<!-- kali&#45;desktop&#45;core&#45;&gt;kali&#45;themes -->
<g id="edge5" class="edge">
<title>kali&#45;desktop&#45;core&#45;&gt;kali&#45;themes</title>
<path fill="none" stroke="blue" d="M196.57,-232.99C175.94,-223.23 149.84,-210.88 127.82,-200.45"/>
<polygon fill="blue" stroke="blue" points="129.19,-197.23 118.66,-196.11 126.2,-203.56 129.19,-197.23"/>
</g>
<!-- kali&#45;defaults -->
<g id="node4" class="node">
<title>kali&#45;defaults</title>
<polygon fill="none" stroke="black" points="420.5,-109 316.5,-109 316.5,-73 420.5,-73 420.5,-109"/>
<text text-anchor="middle" x="368.5" y="-87.3" font-family="Times,serif" font-size="14.00">kali&#45;defaults</text>
</g>
<!-- kali&#45;defaults&#45;desktop&#45;&gt;kali&#45;defaults -->
<g id="edge3" class="edge">
<title>kali&#45;defaults&#45;desktop&#45;&gt;kali&#45;defaults</title>
<path fill="none" stroke="blue" d="M260.02,-159.8C280.85,-146.78 309.65,-128.78 332.34,-114.6"/>
<polygon fill="blue" stroke="blue" points="334.39,-117.44 341.02,-109.18 330.68,-111.51 334.39,-117.44"/>
</g>
<!-- kali&#45;themes&#45;common -->
<g id="node7" class="node">
<title>kali&#45;themes&#45;common</title>
<polygon fill="none" stroke="black" points="164.5,-109 0.5,-109 0.5,-73 164.5,-73 164.5,-109"/>
<text text-anchor="middle" x="82.5" y="-87.3" font-family="Times,serif" font-size="14.00">kali&#45;themes&#45;common</text>
</g>
<!-- kali&#45;themes&#45;&gt;kali&#45;themes&#45;common -->
<g id="edge6" class="edge">
<title>kali&#45;themes&#45;&gt;kali&#45;themes&#45;common</title>
<path fill="none" stroke="blue" d="M82.5,-159.8C82.5,-148.16 82.5,-132.55 82.5,-119.24"/>
<polygon fill="blue" stroke="blue" points="86,-119.18 82.5,-109.18 79,-119.18 86,-119.18"/>
<text text-anchor="middle" x="128" y="-130.8" font-family="Times,serif" font-size="14.00">(= 2023.3.0)</text>
</g>
<!-- kali&#45;wallpapers&#45;2023 -->
<g id="node8" class="node">
<title>kali&#45;wallpapers&#45;2023</title>
<polygon fill="none" stroke="black" points="165,-36 0,-36 0,0 165,0 165,-36"/>
<text text-anchor="middle" x="82.5" y="-14.3" font-family="Times,serif" font-size="14.00">kali&#45;wallpapers&#45;2023</text>
</g>
<!-- kali&#45;themes&#45;common&#45;&gt;kali&#45;wallpapers&#45;2023 -->
<g id="edge7" class="edge">
<title>kali&#45;themes&#45;common&#45;&gt;kali&#45;wallpapers&#45;2023</title>
<path fill="none" stroke="blue" d="M82.5,-72.81C82.5,-64.79 82.5,-55.05 82.5,-46.07"/>
<polygon fill="blue" stroke="blue" points="86,-46.03 82.5,-36.03 79,-46.03 86,-46.03"/>
</g>
<!-- kali&#45;linux&#45;core -->
<g id="node9" class="node">
<title>kali&#45;linux&#45;core</title>
<polygon fill="none" stroke="black" stroke-width="2" points="630.5,-269 514.5,-269 514.5,-233 630.5,-233 630.5,-269"/>
<text text-anchor="middle" x="572.5" y="-247.3" font-family="Times,serif" font-size="14.00">kali&#45;linux&#45;core</text>
</g>
<!-- kali&#45;system&#45;core -->
<g id="node10" class="node">
<title>kali&#45;system&#45;core</title>
<polygon fill="none" stroke="black" points="571,-196 438,-196 438,-160 571,-160 571,-196"/>
<text text-anchor="middle" x="504.5" y="-174.3" font-family="Times,serif" font-size="14.00">kali&#45;system&#45;core</text>
</g>
<!-- kali&#45;linux&#45;core&#45;&gt;kali&#45;system&#45;core -->
<g id="edge8" class="edge">
<title>kali&#45;linux&#45;core&#45;&gt;kali&#45;system&#45;core</title>
<path fill="none" stroke="blue" d="M556.04,-232.81C547.6,-224 537.18,-213.13 527.92,-203.46"/>
<polygon fill="blue" stroke="blue" points="530.25,-200.83 520.81,-196.03 525.2,-205.67 530.25,-200.83"/>
</g>
<!-- kali&#45;system&#45;core&#45;&gt;kali&#45;defaults -->
<g id="edge9" class="edge">
<title>kali&#45;system&#45;core&#45;&gt;kali&#45;defaults</title>
<path fill="none" stroke="blue" d="M476.98,-159.8C456.15,-146.78 427.35,-128.78 404.66,-114.6"/>
<polygon fill="blue" stroke="blue" points="406.32,-111.51 395.98,-109.18 402.61,-117.44 406.32,-111.51"/>
</g>
<!-- kali&#45;linux&#45;default -->
<g id="node11" class="node">
<title>kali&#45;linux&#45;default</title>
<polygon fill="none" stroke="black" stroke-width="2" points="640.5,-415 504.5,-415 504.5,-379 640.5,-379 640.5,-415"/>
<text text-anchor="middle" x="572.5" y="-393.3" font-family="Times,serif" font-size="14.00">kali&#45;linux&#45;default</text>
</g>
<!-- kali&#45;system&#45;gui -->
<g id="node12" class="node">
<title>kali&#45;system&#45;gui</title>
<polygon fill="none" stroke="black" points="480,-342 355,-342 355,-306 480,-306 480,-342"/>
<text text-anchor="middle" x="417.5" y="-320.3" font-family="Times,serif" font-size="14.00">kali&#45;system&#45;gui</text>
</g>
<!-- kali&#45;linux&#45;default&#45;&gt;kali&#45;system&#45;gui -->
<g id="edge10" class="edge">
<title>kali&#45;linux&#45;default&#45;&gt;kali&#45;system&#45;gui</title>
<path fill="none" stroke="blue" d="M535.37,-378.99C513.96,-369.19 486.85,-356.77 464.02,-346.31"/>
<polygon fill="blue" stroke="blue" points="465.41,-343.1 454.86,-342.11 462.49,-349.46 465.41,-343.1"/>
</g>
<!-- kali&#45;linux&#45;headless -->
<g id="node14" class="node">
<title>kali&#45;linux&#45;headless</title>
<polygon fill="none" stroke="black" points="646.5,-342 498.5,-342 498.5,-306 646.5,-306 646.5,-342"/>
<text text-anchor="middle" x="572.5" y="-320.3" font-family="Times,serif" font-size="14.00">kali&#45;linux&#45;headless</text>
</g>
<!-- kali&#45;linux&#45;default&#45;&gt;kali&#45;linux&#45;headless -->
<g id="edge13" class="edge">
<title>kali&#45;linux&#45;default&#45;&gt;kali&#45;linux&#45;headless</title>
<path fill="none" stroke="blue" d="M572.5,-378.81C572.5,-370.79 572.5,-361.05 572.5,-352.07"/>
<polygon fill="blue" stroke="blue" points="576,-352.03 572.5,-342.03 569,-352.03 576,-352.03"/>
</g>
<!-- kali&#45;tools&#45;top10 -->
<g id="node15" class="node">
<title>kali&#45;tools&#45;top10</title>
<polygon fill="none" stroke="black" stroke-width="2" points="792,-342 665,-342 665,-306 792,-306 792,-342"/>
<text text-anchor="middle" x="728.5" y="-320.3" font-family="Times,serif" font-size="14.00">kali&#45;tools&#45;top10</text>
</g>
<!-- kali&#45;linux&#45;default&#45;&gt;kali&#45;tools&#45;top10 -->
<g id="edge16" class="edge">
<title>kali&#45;linux&#45;default&#45;&gt;kali&#45;tools&#45;top10</title>
<path fill="none" stroke="blue" d="M609.87,-378.99C631.41,-369.19 658.7,-356.77 681.68,-346.31"/>
<polygon fill="blue" stroke="blue" points="683.25,-349.44 690.9,-342.11 680.35,-343.07 683.25,-349.44"/>
</g>
<!-- kali&#45;system&#45;cli -->
<g id="node13" class="node">
<title>kali&#45;system&#45;cli</title>
<polygon fill="none" stroke="black" points="496,-269 377,-269 377,-233 496,-233 496,-269"/>
<text text-anchor="middle" x="436.5" y="-247.3" font-family="Times,serif" font-size="14.00">kali&#45;system&#45;cli</text>
</g>
<!-- kali&#45;system&#45;gui&#45;&gt;kali&#45;system&#45;cli -->
<g id="edge11" class="edge">
<title>kali&#45;system&#45;gui&#45;&gt;kali&#45;system&#45;cli</title>
<path fill="none" stroke="blue" d="M422.1,-305.81C424.27,-297.7 426.91,-287.84 429.33,-278.78"/>
<polygon fill="blue" stroke="blue" points="432.74,-279.59 431.94,-269.03 425.98,-277.78 432.74,-279.59"/>
</g>
<!-- kali&#45;system&#45;cli&#45;&gt;kali&#45;system&#45;core -->
<g id="edge12" class="edge">
<title>kali&#45;system&#45;cli&#45;&gt;kali&#45;system&#45;core</title>
<path fill="none" stroke="blue" d="M452.96,-232.81C461.4,-224 471.82,-213.13 481.08,-203.46"/>
<polygon fill="blue" stroke="blue" points="483.8,-205.67 488.19,-196.03 478.75,-200.83 483.8,-205.67"/>
</g>
<!-- kali&#45;linux&#45;headless&#45;&gt;kali&#45;linux&#45;core -->
<g id="edge14" class="edge">
<title>kali&#45;linux&#45;headless&#45;&gt;kali&#45;linux&#45;core</title>
<path fill="none" stroke="blue" d="M572.5,-305.81C572.5,-297.79 572.5,-288.05 572.5,-279.07"/>
<polygon fill="blue" stroke="blue" points="576,-279.03 572.5,-269.03 569,-279.03 576,-279.03"/>
</g>
<!-- kali&#45;linux&#45;headless&#45;&gt;kali&#45;system&#45;cli -->
<g id="edge15" class="edge">
<title>kali&#45;linux&#45;headless&#45;&gt;kali&#45;system&#45;cli</title>
<path fill="none" stroke="blue" d="M539.92,-305.99C521.47,-296.36 498.19,-284.21 478.39,-273.87"/>
<polygon fill="blue" stroke="blue" points="479.77,-270.64 469.28,-269.11 476.53,-276.84 479.77,-270.64"/>
</g>
<!-- kali&#45;linux&#45;firmware -->
<g id="node16" class="node">
<title>kali&#45;linux&#45;firmware</title>
<polygon fill="none" stroke="black" stroke-width="2" points="808.5,-415 658.5,-415 658.5,-379 808.5,-379 808.5,-415"/>
<text text-anchor="middle" x="733.5" y="-393.3" font-family="Times,serif" font-size="14.00">kali&#45;linux&#45;firmware</text>
</g>
</g>
</svg>
