<?xml version="1.0" encoding="UTF-8" standalone="no"?>
<!-- Generated by graphviz version 2.43.0 (0)
 -->

<!-- Title: %3 Pages: 1 -->

<svg
   width="787pt"
   height="362pt"
   viewBox="0 0 787 362"
   version="1.1"
   id="svg228"
   sodipodi:docname="kali-purple.svg"
   inkscape:export-filename="kali-purple2.svg"
   inkscape:export-xdpi="20.440001"
   inkscape:export-ydpi="20.440001"
   xmlns:inkscape="http://www.inkscape.org/namespaces/inkscape"
   xmlns:sodipodi="http://sodipodi.sourceforge.net/DTD/sodipodi-0.dtd"
   xmlns="http://www.w3.org/2000/svg"
   xmlns:svg="http://www.w3.org/2000/svg">
  <defs
     id="defs232" />
  <sodipodi:namedview
     id="namedview230"
     pagecolor="#ffffff"
     bordercolor="#666666"
     borderopacity="1.0"
     inkscape:showpageshadow="2"
     inkscape:pageopacity="0.0"
     inkscape:pagecheckerboard="0"
     inkscape:deskcolor="#d1d1d1"
     inkscape:document-units="pt"
     showgrid="false" />
  <polygon
     fill="#ffffff"
     stroke="transparent"
     points="1405,-360 1405,4 -4,4 -4,-360 "
     id="polygon4"
     transform="translate(2.9999999,359)" />
  <g
     id="node1"
     class="node"
     transform="translate(2.9999999,359)">
    <title
       id="title6">kali-desktop-xfce</title>
    <polygon
       fill="none"
       stroke="#000000"
       stroke-width="2"
       points="308.5,-320 445.5,-320 445.5,-356 308.5,-356 "
       id="polygon8" />
    <text
       text-anchor="middle"
       x="377"
       y="-334.29999"
       font-family="Times, serif"
       font-size="14px"
       id="text10">kali-desktop-xfce</text>
  </g>
  <g
     id="node2"
     class="node"
     transform="translate(2.9999999,359)">
    <title
       id="title13">kali-desktop-core</title>
    <polygon
       fill="none"
       stroke="#000000"
       points="307,-247 445,-247 445,-283 307,-283 "
       id="polygon15" />
    <text
       text-anchor="middle"
       x="376"
       y="-261.29999"
       font-family="Times, serif"
       font-size="14px"
       id="text17">kali-desktop-core</text>
  </g>
  <g
     id="edge1"
     class="edge"
     transform="translate(2.9999999,359)">
    <title
       id="title20">kali-desktop-xfce-&gt;kali-desktop-core</title>
    <path
       fill="none"
       stroke="#0000ff"
       d="m 376.76,-319.81 c -0.12,8.02 -0.25,17.76 -0.38,26.74"
       id="path22" />
    <polygon
       fill="#0000ff"
       stroke="#0000ff"
       points="379.88,-292.98 376.24,-283.03 372.88,-293.08 "
       id="polygon24" />
  </g>
  <g
     id="node3"
     class="node"
     transform="translate(2.9999999,359)">
    <title
       id="title27">kali-defaults-desktop</title>
    <polygon
       fill="none"
       stroke="#000000"
       points="417.5,-160 582.5,-160 582.5,-196 417.5,-196 "
       id="polygon29" />
    <text
       text-anchor="middle"
       x="500"
       y="-174.3"
       font-family="Times, serif"
       font-size="14px"
       id="text31">kali-defaults-desktop</text>
  </g>
  <g
     id="edge2"
     class="edge"
     transform="translate(2.9999999,359)">
    <title
       id="title34">kali-desktop-core-&gt;kali-defaults-desktop</title>
    <path
       fill="none"
       stroke="#0000ff"
       d="m 401.09,-246.8 c 18.83,12.9 44.79,30.7 65.39,44.82"
       id="path36" />
    <polygon
       fill="#0000ff"
       stroke="#0000ff"
       points="468.67,-204.72 474.94,-196.18 464.72,-198.94 "
       id="polygon38" />
  </g>
  <g
     id="node5"
     class="node"
     transform="translate(2.9999999,359)">
    <title
       id="title41">kali-menu</title>
    <polygon
       fill="none"
       stroke="#000000"
       points="313,-160 399,-160 399,-196 313,-196 "
       id="polygon43" />
    <text
       text-anchor="middle"
       x="356"
       y="-174.3"
       font-family="Times, serif"
       font-size="14px"
       id="text45">kali-menu</text>
  </g>
  <g
     id="edge4"
     class="edge"
     transform="translate(2.9999999,359)">
    <title
       id="title48">kali-desktop-core-&gt;kali-menu</title>
    <path
       fill="none"
       stroke="#0000ff"
       d="m 371.95,-246.8 c -2.74,11.64 -6.41,27.25 -9.54,40.56"
       id="path50" />
    <polygon
       fill="#0000ff"
       stroke="#0000ff"
       points="365.74,-205.11 360.04,-196.18 358.92,-206.71 "
       id="polygon52" />
  </g>
  <g
     id="node6"
     class="node"
     transform="translate(2.9999999,359)">
    <title
       id="title55">kali-themes</title>
    <polygon
       fill="none"
       stroke="#000000"
       points="35.5,-160 134.5,-160 134.5,-196 35.5,-196 "
       id="polygon57" />
    <text
       text-anchor="middle"
       x="85"
       y="-174.3"
       font-family="Times, serif"
       font-size="14px"
       id="text59">kali-themes</text>
  </g>
  <g
     id="edge5"
     class="edge"
     transform="translate(2.9999999,359)">
    <title
       id="title62">kali-desktop-core-&gt;kali-themes</title>
    <path
       fill="none"
       stroke="#0000ff"
       d="m 317.46,-246.9 c -50.26,14.68 -122.38,35.75 -172.92,50.51"
       id="path64" />
    <polygon
       fill="#0000ff"
       stroke="#0000ff"
       points="145.31,-192.97 134.73,-193.53 143.35,-199.69 "
       id="polygon66" />
  </g>
  <g
     id="node4"
     class="node"
     transform="translate(2.9999999,359)">
    <title
       id="title69">kali-defaults</title>
    <polygon
       fill="none"
       stroke="#000000"
       points="317,-73 421,-73 421,-109 317,-109 "
       id="polygon71" />
    <text
       text-anchor="middle"
       x="369"
       y="-87.300003"
       font-family="Times, serif"
       font-size="14px"
       id="text73">kali-defaults</text>
  </g>
  <g
     id="edge3"
     class="edge"
     transform="translate(2.9999999,359)">
    <title
       id="title76">kali-defaults-desktop-&gt;kali-defaults</title>
    <path
       fill="none"
       stroke="#0000ff"
       d="m 473.49,-159.8 c -19.98,12.96 -47.56,30.86 -69.37,45.01"
       id="path78" />
    <polygon
       fill="#0000ff"
       stroke="#0000ff"
       points="405.76,-111.68 395.47,-109.18 401.95,-117.55 "
       id="polygon80" />
  </g>
  <g
     id="node7"
     class="node"
     transform="translate(2.9999999,359)">
    <title
       id="title83">kali-themes-common</title>
    <polygon
       fill="none"
       stroke="#000000"
       points="3,-73 167,-73 167,-109 3,-109 "
       id="polygon85" />
    <text
       text-anchor="middle"
       x="85"
       y="-87.300003"
       font-family="Times, serif"
       font-size="14px"
       id="text87">kali-themes-common</text>
  </g>
  <g
     id="edge6"
     class="edge"
     transform="translate(2.9999999,359)">
    <title
       id="title90">kali-themes-&gt;kali-themes-common</title>
    <path
       fill="none"
       stroke="#0000ff"
       d="m 85,-159.8 c 0,11.64 0,27.25 0,40.56"
       id="path92" />
    <polygon
       fill="#0000ff"
       stroke="#0000ff"
       points="88.5,-119.18 85,-109.18 81.5,-119.18 "
       id="polygon94" />
    <text
       text-anchor="middle"
       x="130.5"
       y="-130.8"
       font-family="Times, serif"
       font-size="14px"
       id="text96">(= 2023.3.0)</text>
  </g>
  <g
     id="node8"
     class="node"
     transform="translate(2.9999999,359)">
    <title
       id="title99">kali-wallpapers-2023</title>
    <polygon
       fill="none"
       stroke="#000000"
       points="2.5,0 167.5,0 167.5,-36 2.5,-36 "
       id="polygon101" />
    <text
       text-anchor="middle"
       x="85"
       y="-14.3"
       font-family="Times, serif"
       font-size="14px"
       id="text103">kali-wallpapers-2023</text>
  </g>
  <g
     id="edge7"
     class="edge"
     transform="translate(2.9999999,359)">
    <title
       id="title106">kali-themes-common-&gt;kali-wallpapers-2023</title>
    <path
       fill="none"
       stroke="#0000ff"
       d="m 85,-72.81 c 0,8.02 0,17.76 0,26.74"
       id="path108" />
    <polygon
       fill="#0000ff"
       stroke="#0000ff"
       points="88.5,-46.03 85,-36.03 81.5,-46.03 "
       id="polygon110" />
  </g>
  <g
     id="node9"
     class="node"
     transform="translate(2.9999999,359)">
    <title
       id="title113">kali-linux-firmware</title>
    <polygon
       fill="none"
       stroke="#000000"
       stroke-width="2"
       points="464,-320 614,-320 614,-356 464,-356 "
       id="polygon115" />
    <text
       text-anchor="middle"
       x="539"
       y="-334.29999"
       font-family="Times, serif"
       font-size="14px"
       id="text117">kali-linux-firmware</text>
  </g>
  <g
     id="node10"
     class="node"
     transform="translate(2.9999999,359)">
    <title
       id="title120">kali-system-gui</title>
    <polygon
       fill="none"
       stroke="#000000"
       stroke-width="2"
       points="165.5,-320 290.5,-320 290.5,-356 165.5,-356 "
       id="polygon122" />
    <text
       text-anchor="middle"
       x="228"
       y="-334.29999"
       font-family="Times, serif"
       font-size="14px"
       id="text124">kali-system-gui</text>
  </g>
  <g
     id="node11"
     class="node"
     transform="translate(2.9999999,359)">
    <title
       id="title127">kali-system-cli</title>
    <polygon
       fill="none"
       stroke="#000000"
       points="168.5,-247 287.5,-247 287.5,-283 168.5,-283 "
       id="polygon129" />
    <text
       text-anchor="middle"
       x="228"
       y="-261.29999"
       font-family="Times, serif"
       font-size="14px"
       id="text131">kali-system-cli</text>
  </g>
  <g
     id="edge8"
     class="edge"
     transform="translate(2.9999999,359)">
    <title
       id="title134">kali-system-gui-&gt;kali-system-cli</title>
    <path
       fill="none"
       stroke="#0000ff"
       d="m 228,-319.81 c 0,8.02 0,17.76 0,26.74"
       id="path136" />
    <polygon
       fill="#0000ff"
       stroke="#0000ff"
       points="231.5,-293.03 228,-283.03 224.5,-293.03 "
       id="polygon138" />
  </g>
  <g
     id="node12"
     class="node"
     transform="translate(2.9999999,359)">
    <title
       id="title141">kali-system-core</title>
    <polygon
       fill="none"
       stroke="#000000"
       points="161.5,-160 294.5,-160 294.5,-196 161.5,-196 "
       id="polygon143" />
    <text
       text-anchor="middle"
       x="228"
       y="-174.3"
       font-family="Times, serif"
       font-size="14px"
       id="text145">kali-system-core</text>
  </g>
  <g
     id="edge9"
     class="edge"
     transform="translate(2.9999999,359)">
    <title
       id="title148">kali-system-cli-&gt;kali-system-core</title>
    <path
       fill="none"
       stroke="#0000ff"
       d="m 228,-246.8 c 0,11.64 0,27.25 0,40.56"
       id="path150" />
    <polygon
       fill="#0000ff"
       stroke="#0000ff"
       points="231.5,-206.18 228,-196.18 224.5,-206.18 "
       id="polygon152" />
  </g>
  <g
     id="edge10"
     class="edge"
     transform="translate(2.9999999,359)">
    <title
       id="title155">kali-system-core-&gt;kali-defaults</title>
    <path
       fill="none"
       stroke="#0000ff"
       d="m 256.53,-159.8 c 21.7,13.08 51.72,31.18 75.29,45.39"
       id="path157" />
    <polygon
       fill="#0000ff"
       stroke="#0000ff"
       points="333.75,-117.34 340.51,-109.18 330.14,-111.34 "
       id="polygon159" />
  </g>
  <g
     id="node13"
     class="node"
     transform="translate(2.9999999,359)">
    <title
       id="title162">kali-themes-purple</title>
    <polygon
       fill="none"
       stroke="#000000"
       stroke-width="2"
       points="0,-247 150,-247 150,-283 0,-283 "
       id="polygon164" />
    <text
       text-anchor="middle"
       x="75"
       y="-261.29999"
       font-family="Times, serif"
       font-size="14px"
       id="text166">kali-themes-purple</text>
  </g>
  <g
     id="edge11"
     class="edge"
     transform="translate(2.9999999,359)">
    <title
       id="title169">kali-themes-purple-&gt;kali-themes</title>
    <path
       fill="none"
       stroke="#0000ff"
       d="m 77.02,-246.8 c 1.37,11.64 3.21,27.25 4.78,40.56"
       id="path171" />
    <polygon
       fill="#0000ff"
       stroke="#0000ff"
       points="85.29,-206.52 82.98,-196.18 78.33,-205.7 "
       id="polygon173" />
    <text
       text-anchor="middle"
       x="126.5"
       y="-217.8"
       font-family="Times, serif"
       font-size="14px"
       id="text175">(= 2023.3.0)</text>
  </g>
  <g
     id="node14"
     class="node"
     transform="translate(2.9999999,359)">
    <title
       id="title178">kali-tools-detect</title>
    <polygon
       fill="none"
       stroke="#000000"
       stroke-width="2"
       points="632.5,-320 763.5,-320 763.5,-356 632.5,-356 "
       id="polygon180" />
    <text
       text-anchor="middle"
       x="698"
       y="-334.29999"
       font-family="Times, serif"
       font-size="14px"
       id="text182">kali-tools-detect</text>
  </g>
  <g
     id="node15"
     class="node"
     transform="translate(-146.91003,408.19521)">
    <title
       id="title185">kali-tools-identify</title>
    <polygon
       fill="none"
       stroke="#000000"
       stroke-width="2"
       points="922,-320 922,-356 782,-356 782,-320 "
       id="polygon187" />
    <text
       text-anchor="middle"
       x="852"
       y="-334.29999"
       font-family="Times, serif"
       font-size="14px"
       id="text189">kali-tools-identify</text>
  </g>
  <g
     id="node16"
     class="node"
     transform="translate(-301.36314,459.89536)">
    <title
       id="title192">kali-tools-protect</title>
    <polygon
       fill="none"
       stroke="#000000"
       stroke-width="2"
       points="1077.5,-320 1077.5,-356 940.5,-356 940.5,-320 "
       id="polygon194" />
    <text
       text-anchor="middle"
       x="1009"
       y="-334.29999"
       font-family="Times, serif"
       font-size="14px"
       id="text196">kali-tools-protect</text>
  </g>
  <g
     id="node17"
     class="node"
     transform="translate(-458.91297,510.62666)">
    <title
       id="title199">kali-tools-recover</title>
    <polygon
       fill="none"
       stroke="#000000"
       stroke-width="2"
       points="1236,-320 1236,-356 1096,-356 1096,-320 "
       id="polygon201" />
    <text
       text-anchor="middle"
       x="1166"
       y="-334.29999"
       font-family="Times, serif"
       font-size="14px"
       id="text203">kali-tools-recover</text>
  </g>
  <g
     id="node18"
     class="node"
     transform="translate(-617.6425,561.00035)">
    <title
       id="title206">kali-tools-respond</title>
    <polygon
       fill="none"
       stroke="#000000"
       stroke-width="2"
       points="1397.5,-320 1397.5,-356 1254.5,-356 1254.5,-320 "
       id="polygon208" />
    <text
       text-anchor="middle"
       x="1326"
       y="-334.29999"
       font-family="Times, serif"
       font-size="14px"
       id="text210">kali-tools-respond</text>
  </g>
  <g
     id="node19"
     class="node"
     transform="translate(-617.6425,561.00035)">
    <title
       id="title213">kali-tools-forensics</title>
    <polygon
       fill="none"
       stroke="#000000"
       points="1401,-247 1401,-283 1251,-283 1251,-247 "
       id="polygon215" />
    <text
       text-anchor="middle"
       x="1326"
       y="-261.29999"
       font-family="Times, serif"
       font-size="14px"
       id="text217">kali-tools-forensics</text>
  </g>
  <g
     id="edge12"
     class="edge"
     transform="translate(-617.6425,561.00035)">
    <title
       id="title220">kali-tools-respond-&gt;kali-tools-forensics</title>
    <path
       fill="none"
       stroke="#0000ff"
       d="m 1326,-319.81 c 0,8.02 0,17.76 0,26.74"
       id="path222" />
    <polygon
       fill="#0000ff"
       stroke="#0000ff"
       points="1326,-283.03 1322.5,-293.03 1329.5,-293.03 "
       id="polygon224" />
  </g>
</svg>
